<svg width="173" height="47" viewBox="0 0 173 47" fill="none" xmlns="http://www.w3.org/2000/svg">
  <path d="M17.2523 46.64C14.8203 46.64 12.5589 46.32 10.4683 45.68C8.42025 45.04 6.54292 44.08 4.83625 42.8C3.17225 41.4773 1.67892 39.856 0.35625 37.936L5.09225 32.496C7.18292 35.4827 9.18825 37.552 11.1083 38.704C13.0283 39.856 15.3109 40.432 17.9563 40.432C19.5776 40.432 21.0496 40.176 22.3723 39.664C23.6949 39.152 24.7403 38.448 25.5083 37.552C26.2763 36.656 26.6603 35.632 26.6603 34.48C26.6603 33.712 26.5323 32.9867 26.2763 32.304C26.0203 31.6213 25.6149 31.0027 25.0603 30.448C24.5483 29.8933 23.8656 29.3813 23.0123 28.912C22.2016 28.4427 21.2416 28.0373 20.1323 27.696C19.0229 27.312 17.7429 26.992 16.2923 26.736C13.9883 26.2667 11.9829 25.648 10.2763 24.88C8.56958 24.112 7.14025 23.152 5.98825 22C4.83625 20.848 3.98292 19.5467 3.42825 18.096C2.87358 16.6027 2.59625 14.9387 2.59625 13.104C2.59625 11.312 2.98025 9.648 3.74825 8.112C4.55892 6.576 5.64692 5.25333 7.01225 4.144C8.42025 2.992 10.0629 2.11733 11.9403 1.52C13.8176 0.879997 15.8443 0.559998 18.0203 0.559998C20.3243 0.559998 22.4363 0.858664 24.3563 1.456C26.2763 2.05333 27.9829 2.94933 29.4762 4.144C30.9696 5.296 32.2069 6.72533 33.1883 8.432L28.3243 13.232C27.4709 11.824 26.5109 10.6507 25.4443 9.712C24.3776 8.73066 23.2043 8.00533 21.9243 7.536C20.6443 7.024 19.2789 6.768 17.8283 6.768C16.1643 6.768 14.7136 7.024 13.4763 7.536C12.2389 8.048 11.2576 8.77333 10.5323 9.712C9.84958 10.608 9.50825 11.6747 9.50825 12.912C9.50825 13.808 9.67892 14.64 10.0203 15.408C10.3616 16.1333 10.8736 16.7947 11.5563 17.392C12.2816 17.9467 13.2416 18.4587 14.4363 18.928C15.6309 19.3547 17.0603 19.7387 18.7243 20.08C21.0709 20.592 23.1616 21.2533 24.9963 22.064C26.8309 22.832 28.3883 23.7493 29.6683 24.816C30.9483 25.8827 31.9083 27.0773 32.5483 28.4C33.2309 29.7227 33.5723 31.152 33.5723 32.688C33.5723 35.5467 32.9109 38.0213 31.5883 40.112C30.2656 42.2027 28.3883 43.824 25.9563 44.976C23.5243 46.0853 20.6229 46.64 17.2523 46.64ZM38.6938 46L56.0378 1.2H63.0778L80.2938 46H72.9338L62.6938 18.992C62.5658 18.6933 62.3098 17.968 61.9258 16.816C61.5844 15.664 61.1791 14.384 60.7098 12.976C60.2404 11.568 59.8138 10.288 59.4298 9.136C59.0458 7.94133 58.7898 7.17333 58.6618 6.832L60.1338 6.768C59.8778 7.49333 59.5578 8.41066 59.1738 9.52C58.8324 10.6293 58.4484 11.8027 58.0218 13.04C57.6378 14.2773 57.2538 15.4507 56.8698 16.56C56.4858 17.6267 56.1658 18.5227 55.9097 19.248L45.7338 46H38.6938ZM46.3738 34.864L48.9338 28.208H69.2858L72.2298 34.864H46.3738ZM106.96 46.64C103.718 46.64 100.688 46.064 97.8723 44.912C95.0563 43.7173 92.5816 42.0747 90.4483 39.984C88.3149 37.8933 86.6509 35.4613 85.4563 32.688C84.3043 29.872 83.7283 26.8427 83.7283 23.6C83.7283 20.4 84.3043 17.4133 85.4563 14.64C86.6509 11.8667 88.2936 9.456 90.3843 7.408C92.5176 5.31733 94.9923 3.696 97.8083 2.544C100.624 1.392 103.654 0.815998 106.896 0.815998C109.158 0.815998 111.355 1.136 113.488 1.776C115.664 2.416 117.627 3.312 119.376 4.464C121.126 5.616 122.555 6.93866 123.664 8.432L119.184 13.104C117.904 11.8667 116.582 10.8427 115.216 10.032C113.894 9.22133 112.528 8.60266 111.12 8.176C109.712 7.74933 108.304 7.536 106.896 7.536C104.592 7.536 102.459 7.94133 100.496 8.752C98.5763 9.56267 96.8696 10.6933 95.3763 12.144C93.9256 13.5947 92.7949 15.3013 91.9843 17.264C91.1736 19.184 90.7683 21.296 90.7683 23.6C90.7683 25.8187 91.1949 27.9307 92.0483 29.936C92.9016 31.8987 94.0749 33.6267 95.5683 35.12C97.1043 36.6133 98.8536 37.7867 100.816 38.64C102.822 39.4933 104.934 39.92 107.152 39.92C108.816 39.92 110.395 39.6853 111.888 39.216C113.382 38.704 114.704 38 115.856 37.104C117.008 36.208 117.904 35.184 118.544 34.032C119.184 32.8373 119.504 31.5787 119.504 30.256V28.976L120.464 29.872H106.768V23.024H126.608C126.694 23.4933 126.758 23.9627 126.8 24.432C126.843 24.8587 126.864 25.2853 126.864 25.712C126.907 26.096 126.928 26.48 126.928 26.864C126.928 29.808 126.416 32.496 125.392 34.928C124.368 37.3173 122.939 39.3867 121.104 41.136C119.312 42.8853 117.2 44.2507 114.768 45.232C112.379 46.1707 109.776 46.64 106.96 46.64ZM130.631 46L147.975 1.2H155.015L172.231 46H164.871L154.631 18.992C154.503 18.6933 154.247 17.968 153.863 16.816C153.522 15.664 153.117 14.384 152.647 12.976C152.178 11.568 151.751 10.288 151.367 9.136C150.983 7.94133 150.727 7.17333 150.599 6.832L152.071 6.768C151.815 7.49333 151.495 8.41066 151.111 9.52C150.77 10.6293 150.386 11.8027 149.959 13.04C149.575 14.2773 149.191 15.4507 148.807 16.56C148.423 17.6267 148.103 18.5227 147.847 19.248L137.671 46H130.631ZM138.311 34.864L140.871 28.208H161.223L164.167 34.864H138.311Z" fill="#224957" fill-opacity="0.9"/>
</svg>
